:FULLY-SPECIFIED
:FORCE-ALL-JOINTS-BE-3DOF
:DEGREES
2956
root -5.94803 13.1466 -28.7548 165.469 -63.9082 -163.015
lfemur -71.158 47.7117 -9.6831
ltibia 84.0565 -0 0
lfoot -8.39471 -4.8298 -0.275496
ltoes -36.8777 0 0
rfemur -34.6163 -19.8783 21.0303
rtibia 93.624 -0 0
rfoot -41.449 -30.4151 0.0531509
rtoes -14.2613 0 0
lowerback 16.6085 5.1382 0.951252
upperback -4.53793 7.36222 1.7079
thorax -14.5733 3.38926 -0.740623
lowerneck -3.30824 10.8277 2.44854
upperneck 8.85361 14.2259 1.08
head 3.46555 7.13591 0.448513
lclavicle -2.03257e-14 -9.93923e-15 0
lhumerus 4.91764 15.9654 81.8845
lradius 90.9886 -0 0
lwrist -20.0048 0 0
lhand -40.8699 30.45 -0.0143418
lfingers 7.12502 -0 0
lthumb -13.8078 60.0056 -0.018545
rclavicle -2.03257e-14 -9.93923e-15 0
rhumerus -67.7978 52.1515 -117.568
rradius 113.173 -0 0
rwrist -80.558 0 0
rhand 6.82375 -24.2001 -0.137816
rfingers 7.12502 -0 0
rthumb 32.1253 -51.5943 -0.184029
2957
root -5.93886 13.1468 -28.7559 165.495 -64.158 -162.967
lfemur -71.0036 47.2021 -9.54925
ltibia 83.6306 -0 0
lfoot -8.05275 -4.67097 -0.255036
ltoes -36.7132 0 0
rfemur -34.7496 -19.7578 21.1675
rtibia 93.545 -0 0
rfoot -41.3669 -30.5598 0.0490159
rtoes -14.045 0 0
lowerback 16.6447 5.12783 0.904388
upperback -4.50288 7.33524 1.69337
thorax -14.5585 3.3804 -0.724987
lowerneck -3.29605 10.7632 2.37764
upperneck 8.67627 14.1517 1.01049
head 3.40571 7.09603 0.431635
lclavicle -2.03257e-14 -9.93923e-15 0
lhumerus 4.98703 16.007 81.7285
lradius 90.8967 -0 0
lwrist -19.7059 0 0
lhand -40.723 30.451 -0.0134951
lfingers 7.12502 -0 0
lthumb -13.6661 60.0137 -0.0173699
rclavicle -2.03257e-14 -9.93923e-15 0
rhumerus -66.51 52.06 -116.416
rradius 112.928 -0 0
rwrist -80.2383 0 0
rhand 6.38523 -24.2197 -0.128316
rfingers 7.12502 -0 0
rthumb 31.706 -51.6779 -0.170203
2958
root -5.92969 13.1469 -28.7569 165.463 -64.5591 -162.827
lfemur -70.7318 46.4425 -9.30279
ltibia 82.9337 -0 0
lfoot -7.57675 -4.43589 -0.222701
ltoes -36.5241 0 0
rfemur -34.9113 -19.5647 21.3904
rtibia 93.3764 -0 0
rfoot -41.2425 -30.7529 0.0426161
rtoes -13.7488 0 0
lowerback 16.6823 5.12002 0.856941
upperback -4.45489 7.30951 1.66818
thorax -14.528 3.37197 -0.720401
lowerneck -3.27214 10.6476 2.26887
upperneck 8.4379 14.0118 0.937298
head 3.32284 7.02316 0.416818
lclavicle -2.03257e-14 -9.93923e-15 0
lhumerus 5.09653 16.0243 81.5437
lradius 90.7712 -0 0
lwrist -19.279 0 0
lhand -40.5088 30.4579 -0.0120264
lfingers 7.12502 -0 0
lthumb -13.4594 60.0304 -0.0153928
rclavicle -2.03257e-14 -9.93923e-15 0
rhumerus -64.5618 51.8773 -114.711
rradius 112.588 -0 0
rwrist -79.8387 0 0
rhand 5.79614 -24.2681 -0.112996
rfingers 7.12502 -0 0
rthumb 31.1423 -51.8073 -0.148553
2959
root -5.92052 13.1471 -28.758 165.362 -65.1286 -162.579
lfemur -70.3399 45.4029 -8.94138
ltibia 81.9355 -0 0
lfoot -6.95148 -4.11472 -0.178923
ltoes -36.3104 0 0
rfemur -35.1045 -19.29 21.7081
rtibia 93.109 -0 0
rfoot -41.0712 -31.0005 0.0340643
rtoes -13.3636 0 0
lowerback 16.7218 5.11492 0.808803
upperback -4.39237 7.28496 1.63109
thorax -14.4799 3.36391 -0.728048
lowerneck -3.23509 10.4754 2.11769
upperneck 8.13146 13.799 0.86043
head 3.21421 6.91366 0.404362
lclavicle -2.03257e-14 -9.93923e-15 0
lhumerus 5.25082 16.016 81.3258
lradius 90.6079 -0 0
lwrist -18.7092 0 0
lhand -40.2191 30.4711 -0.00991313
lfingers 7.12502 -0 0
lthumb -13.18 60.0566 -0.0126009
rclavicle -2.03257e-14 -9.93923e-15 0
rhumerus -61.8992 51.5568 -112.411
rradius 112.14 -0 0
rwrist -79.3489 0 0
rhand 5.03812 -24.3484 -0.0918505
rfingers 7.12502 -0 0
rthumb 30.4165 -51.9876 -0.119359
2960
root -5.91135 13.1472 -28.759 165.176 -65.8832 -162.203
lfemur -69.8304 44.0527 -8.46769
ltibia 80.606 -0 0
lfoot -6.16166 -3.6975 -0.125146
ltoes -36.0701 0 0
rfemur -35.3317 -18.9245 22.1291
rtibia 92.7334 -0 0
rfoot -40.8479 -31.3088 0.0236773
rtoes -12.8802 0 0
lowerback 16.7633 5.11267 0.759862
upperback -4.31372 7.26156 1.58089
thorax -14.4124 3.35621 -0.749111
lowerneck -3.18334 10.241 1.91956
upperneck 7.75002 13.5059 0.780292
head 3.07713 6.76387 0.394637
lclavicle -2.03257e-14 -9.93923e-15 0
lhumerus 5.45461 15.9806 81.0702
lradius 90.4023 -0 0
lwrist -17.9815 0 0
lhand -39.8461 30.4911 -0.00716442
lfingers 7.12502 -0 0
lthumb -12.8201 60.0928 -0.00902934
rclavicle -2.03257e-14 -9.93923e-15 0
rhumerus -58.4905 51.033 -109.497
rradius 111.574 -0 0
rwrist -78.7584 0 0
rhand 4.0928 -24.4638 -0.0652724
rfingers 7.12502 -0 0
rthumb 29.511 -52.2244 -0.0835454
2961
root -5.90218 13.1474 -28.7601 164.881 -66.8393 -161.672
lfemur -69.2104 42.3606 -7.88934
ltibia 78.9149 -0 0
lfoot -5.19193 -3.17415 -0.0640824
ltoes -35.8043 0 0
rfemur -35.5945 -18.4588 22.6617
rtibia 92.2405 -0 0
rfoot -40.5678 -31.6842 0.0120276
rtoes -12.2895 0 0
lowerback 16.8071 5.11339 0.710009
upperback -4.21734 7.23928 1.51634
thorax -14.3236 3.34885 -0.784772
lowerneck -3.11508 9.93897 1.66989
upperneck 7.28678 13.1251 0.697772
head 2.9089 6.57016 0.388104
lclavicle -2.03257e-14 -9.93923e-15 0
lhumerus 5.71269 15.9171 80.7726
lradius 90.15 -0 0
lwrist -17.081 0 0
lhand -39.3817 30.5183 -0.00382832
lfingers 7.12502 -0 0
lthumb -12.372 60.1401 -0.00477321
rclavicle -2.03257e-14 -9.93923e-15 0
rhumerus -54.3367 50.2194 -105.983
rradius 110.878 -0 0
rwrist -78.0569 0 0
rhand 2.94178 -24.6176 -0.0341534
rfingers 7.12502 -0 0
rthumb 28.4081 -52.523 -0.0428495
2962
root -5.89301 13.1475 -28.7611 1244.44 -68.0127 -160.945
lfemur -68.4916 40.2949 -7.21837
ltibia 76.8321 0 0
lfoot -4.0269 -2.53456 0
ltoes -35.512 0 0
rfemur -35.8937 -17.8833 23.3134
rtibia 91.621 0 0
rfoot -40.2261 -32.1328 0
rtoes -11.5822 0 0
lowerback 16.8535 5.11722 0.659134
upperback -4.10163 7.21809 1.43621
thorax -14.2116 3.34184 -0.836214
lowerneck -3.02829 9.56378 1.36404
upperneck 6.7351 12.6491 0.614339
head 2.70682 6.32889 0.385329
lclavicle -2.03257e-14 -9.93923e-15 0
lhumerus 6.02987 15.8244 80.4285
lradius 89.8465 0 0
lwrist -15.9928 0 0
lhand -38.8179 390.553 0
lfingers 7.12502 0 0
lthumb -11.8281 -659.801 0
rclavicle -2.03257e-14 -9.93923e-15 0
rhumerus -49.4836 49.0098 -101.93
rradius 110.04 0 0
rwrist -77.2338 0 0
rhand 1.56667 -384.813 0
rfingers 7.12502 0 0
rthumb 27.0901 307.111 0
2963
root -5.82981 13.1977 -28.8211 164.039 -69.0943 -160.254
lfemur -67.7518 38.1965 -6.49209
ltibia 74.5976 -0 0
lfoot -2.77286 -1.87133 0.0575712
ltoes -35.2042 0 0
rfemur -36.1796 -17.3225 23.9799
rtibia 91.0023 -0 0
rfoot -39.9143 -32.6229 -0.0134606
rtoes -10.8179 0 0
lowerback 16.8996 5.13981 0.609761
upperback -3.98808 7.22147 1.34805
thorax -14.1001 3.34573 -0.903073
lowerneck -2.94378 9.20496 1.06607
upperneck 6.1855 12.1943 0.52343
head 2.50254 6.09822 0.375114
lclavicle -2.42517e-14 1.74931e-14 0
lhumerus 6.29462 15.8087 80.0568
lradius 89.5885 -0 0
lwrist -14.8861 0 0
lhand -38.2612 30.5811 0.00221179
lfingers 7.12502 -0 0
lthumb -11.291 60.2518 0.00296277
rclavicle -2.42517e-14 1.74931e-14 0
rhumerus -44.8959 47.4718 -98.103
rradius 109.184 -0 0
rwrist -76.4646 0 0
rhand 0.164868 -25.0116 0.0293387
rfingers 7.12502 -0 0
rthumb 25.7461 -53.2596 0.0350204
